<mxfile host="app.diagrams.net" agent="Mozilla/5.0 (Windows NT 10.0; Win64; x64) AppleWebKit/537.36 (KHTML, like Gecko) Chrome/130.0.0.0 Safari/537.36" version="24.8.4">
  <diagram id="C5RBs43oDa-KdzZeNtuy" name="Page-1">
    <mxGraphModel dx="1050" dy="557" grid="1" gridSize="10" guides="1" tooltips="1" connect="1" arrows="1" fold="1" page="1" pageScale="1" pageWidth="827" pageHeight="1169" math="0" shadow="0">
      <root>
        <mxCell id="WIyWlLk6GJQsqaUBKTNV-0" />
        <mxCell id="WIyWlLk6GJQsqaUBKTNV-1" parent="WIyWlLk6GJQsqaUBKTNV-0" />
        <mxCell id="WIyWlLk6GJQsqaUBKTNV-2" value="" style="rounded=0;html=1;jettySize=auto;orthogonalLoop=1;fontSize=11;endArrow=block;endFill=0;endSize=8;strokeWidth=1;shadow=0;labelBackgroundColor=none;edgeStyle=orthogonalEdgeStyle;" parent="WIyWlLk6GJQsqaUBKTNV-1" source="WIyWlLk6GJQsqaUBKTNV-3" edge="1">
          <mxGeometry relative="1" as="geometry">
            <mxPoint x="375" y="180" as="targetPoint" />
          </mxGeometry>
        </mxCell>
        <mxCell id="WIyWlLk6GJQsqaUBKTNV-3" value="&lt;h3&gt;&lt;font color=&quot;#000000&quot; face=&quot;Comic Sans MS&quot;&gt;&lt;i style=&quot;&quot;&gt;Proje Başlatma&lt;/i&gt;&lt;/font&gt;&lt;/h3&gt;" style="rounded=1;whiteSpace=wrap;html=1;fontSize=12;glass=0;strokeWidth=1;shadow=0;fillColor=#a0522d;strokeColor=#6D1F00;fontColor=#ffffff;" parent="WIyWlLk6GJQsqaUBKTNV-1" vertex="1">
          <mxGeometry x="315" y="90" width="120" height="40" as="geometry" />
        </mxCell>
        <mxCell id="WIyWlLk6GJQsqaUBKTNV-7" value="&lt;h3&gt;&lt;i&gt;&lt;b&gt;&lt;font color=&quot;#000000&quot; face=&quot;Comic Sans MS&quot;&gt;React Projesi Oluşturma&lt;/font&gt;&lt;/b&gt;&lt;/i&gt;&lt;/h3&gt;" style="rounded=1;whiteSpace=wrap;html=1;fontSize=12;glass=0;strokeWidth=1;shadow=0;fillColor=#6d8764;fontColor=#ffffff;strokeColor=#3A5431;" parent="WIyWlLk6GJQsqaUBKTNV-1" vertex="1">
          <mxGeometry x="310" y="180" width="130" height="50" as="geometry" />
        </mxCell>
        <mxCell id="WIyWlLk6GJQsqaUBKTNV-11" value="&lt;h3&gt;&lt;font color=&quot;#000000&quot; face=&quot;Comic Sans MS&quot;&gt;&lt;i&gt;Uygulama Geliştirme&lt;/i&gt;&lt;/font&gt;&lt;/h3&gt;" style="rounded=1;whiteSpace=wrap;html=1;fontSize=12;glass=0;strokeWidth=1;shadow=0;fillColor=#6d8764;fontColor=#ffffff;strokeColor=#3A5431;" parent="WIyWlLk6GJQsqaUBKTNV-1" vertex="1">
          <mxGeometry x="310" y="430" width="135" height="50" as="geometry" />
        </mxCell>
        <mxCell id="WIyWlLk6GJQsqaUBKTNV-12" value="&lt;h3&gt;&lt;i&gt;&lt;b&gt;&lt;font color=&quot;#000000&quot; face=&quot;Comic Sans MS&quot;&gt;Geliştirme Ortamını Hazırlama&lt;/font&gt;&lt;/b&gt;&lt;/i&gt;&lt;/h3&gt;" style="rounded=1;whiteSpace=wrap;html=1;fontSize=12;glass=0;strokeWidth=1;shadow=0;fillColor=#6d8764;fontColor=#ffffff;strokeColor=#3A5431;" parent="WIyWlLk6GJQsqaUBKTNV-1" vertex="1">
          <mxGeometry x="310" y="300" width="135" height="60" as="geometry" />
        </mxCell>
        <mxCell id="LJRJPsoyRVIfoA9RNnUp-2" value="" style="endArrow=classic;html=1;rounded=0;" edge="1" parent="WIyWlLk6GJQsqaUBKTNV-1">
          <mxGeometry width="50" height="50" relative="1" as="geometry">
            <mxPoint x="374.5" y="360" as="sourcePoint" />
            <mxPoint x="375" y="430" as="targetPoint" />
          </mxGeometry>
        </mxCell>
        <mxCell id="LJRJPsoyRVIfoA9RNnUp-7" value="" style="endArrow=classic;html=1;rounded=0;" edge="1" parent="WIyWlLk6GJQsqaUBKTNV-1">
          <mxGeometry width="50" height="50" relative="1" as="geometry">
            <mxPoint x="440" y="190" as="sourcePoint" />
            <mxPoint x="545" y="140" as="targetPoint" />
          </mxGeometry>
        </mxCell>
        <mxCell id="LJRJPsoyRVIfoA9RNnUp-8" value="&lt;h3&gt;&lt;b&gt;&lt;i&gt;&lt;font color=&quot;#000000&quot; face=&quot;Comic Sans MS&quot;&gt;Git İndirme ve Kurma&lt;/font&gt;&lt;/i&gt;&lt;/b&gt;&lt;/h3&gt;" style="ellipse;whiteSpace=wrap;html=1;fillColor=#76608a;fontColor=#ffffff;strokeColor=#432D57;" vertex="1" parent="WIyWlLk6GJQsqaUBKTNV-1">
          <mxGeometry x="555" y="90" width="120" height="70" as="geometry" />
        </mxCell>
        <mxCell id="LJRJPsoyRVIfoA9RNnUp-9" value="&lt;h3&gt;&lt;b&gt;&lt;i&gt;&lt;font color=&quot;#000000&quot; face=&quot;Comic Sans MS&quot;&gt;Git Reposu Başlatma&lt;/font&gt;&lt;/i&gt;&lt;/b&gt;&lt;/h3&gt;" style="ellipse;whiteSpace=wrap;html=1;fillColor=#76608a;fontColor=#ffffff;strokeColor=#432D57;" vertex="1" parent="WIyWlLk6GJQsqaUBKTNV-1">
          <mxGeometry x="555" y="170" width="120" height="70" as="geometry" />
        </mxCell>
        <mxCell id="LJRJPsoyRVIfoA9RNnUp-11" value="" style="endArrow=classic;html=1;rounded=0;" edge="1" parent="WIyWlLk6GJQsqaUBKTNV-1">
          <mxGeometry width="50" height="50" relative="1" as="geometry">
            <mxPoint x="440" y="204.5" as="sourcePoint" />
            <mxPoint x="550" y="204.5" as="targetPoint" />
          </mxGeometry>
        </mxCell>
        <mxCell id="LJRJPsoyRVIfoA9RNnUp-12" value="&lt;h3&gt;&lt;b&gt;&lt;i&gt;&lt;font color=&quot;#000000&quot; face=&quot;Comic Sans MS&quot;&gt;Azure DevOps Ortamına Taşıma&lt;/font&gt;&lt;/i&gt;&lt;/b&gt;&lt;/h3&gt;" style="ellipse;whiteSpace=wrap;html=1;fillColor=#76608a;fontColor=#ffffff;strokeColor=#432D57;" vertex="1" parent="WIyWlLk6GJQsqaUBKTNV-1">
          <mxGeometry x="555" y="250" width="120" height="80" as="geometry" />
        </mxCell>
        <mxCell id="LJRJPsoyRVIfoA9RNnUp-13" value="" style="endArrow=classic;html=1;rounded=0;" edge="1" parent="WIyWlLk6GJQsqaUBKTNV-1">
          <mxGeometry width="50" height="50" relative="1" as="geometry">
            <mxPoint x="440" y="220" as="sourcePoint" />
            <mxPoint x="555" y="270" as="targetPoint" />
          </mxGeometry>
        </mxCell>
        <mxCell id="LJRJPsoyRVIfoA9RNnUp-14" value="" style="endArrow=classic;html=1;rounded=0;" edge="1" parent="WIyWlLk6GJQsqaUBKTNV-1">
          <mxGeometry width="50" height="50" relative="1" as="geometry">
            <mxPoint x="374.5" y="230" as="sourcePoint" />
            <mxPoint x="375" y="300" as="targetPoint" />
          </mxGeometry>
        </mxCell>
        <mxCell id="LJRJPsoyRVIfoA9RNnUp-15" value="" style="endArrow=classic;html=1;rounded=0;" edge="1" parent="WIyWlLk6GJQsqaUBKTNV-1">
          <mxGeometry width="50" height="50" relative="1" as="geometry">
            <mxPoint x="310" y="320" as="sourcePoint" />
            <mxPoint x="210" y="290" as="targetPoint" />
          </mxGeometry>
        </mxCell>
        <mxCell id="LJRJPsoyRVIfoA9RNnUp-16" value="" style="endArrow=classic;html=1;rounded=0;" edge="1" parent="WIyWlLk6GJQsqaUBKTNV-1">
          <mxGeometry width="50" height="50" relative="1" as="geometry">
            <mxPoint x="310" y="340" as="sourcePoint" />
            <mxPoint x="210" y="370" as="targetPoint" />
          </mxGeometry>
        </mxCell>
        <mxCell id="LJRJPsoyRVIfoA9RNnUp-17" value="&lt;h3&gt;&lt;b&gt;&lt;i&gt;&lt;font color=&quot;#000000&quot; face=&quot;Comic Sans MS&quot;&gt;TypeScript Öğrenme ve Kullanma&lt;/font&gt;&lt;/i&gt;&lt;/b&gt;&lt;/h3&gt;" style="ellipse;whiteSpace=wrap;html=1;fillColor=#e1d5e7;strokeColor=#9673a6;" vertex="1" parent="WIyWlLk6GJQsqaUBKTNV-1">
          <mxGeometry x="80" y="250" width="120" height="70" as="geometry" />
        </mxCell>
        <mxCell id="LJRJPsoyRVIfoA9RNnUp-18" value="&lt;h3&gt;&lt;b&gt;&lt;i&gt;&lt;font color=&quot;#000000&quot; face=&quot;Comic Sans MS&quot;&gt;SCSS öğrenme ve kullanma&lt;/font&gt;&lt;/i&gt;&lt;/b&gt;&lt;/h3&gt;" style="ellipse;whiteSpace=wrap;html=1;fillColor=#e1d5e7;strokeColor=#9673a6;" vertex="1" parent="WIyWlLk6GJQsqaUBKTNV-1">
          <mxGeometry x="80" y="340" width="120" height="70" as="geometry" />
        </mxCell>
        <mxCell id="LJRJPsoyRVIfoA9RNnUp-19" value="" style="endArrow=classic;html=1;rounded=0;" edge="1" parent="WIyWlLk6GJQsqaUBKTNV-1">
          <mxGeometry width="50" height="50" relative="1" as="geometry">
            <mxPoint x="445" y="450" as="sourcePoint" />
            <mxPoint x="520" y="410" as="targetPoint" />
            <Array as="points" />
          </mxGeometry>
        </mxCell>
        <mxCell id="LJRJPsoyRVIfoA9RNnUp-20" value="" style="endArrow=classic;html=1;rounded=0;" edge="1" parent="WIyWlLk6GJQsqaUBKTNV-1">
          <mxGeometry width="50" height="50" relative="1" as="geometry">
            <mxPoint x="445" y="460" as="sourcePoint" />
            <mxPoint x="525" y="490" as="targetPoint" />
          </mxGeometry>
        </mxCell>
        <mxCell id="LJRJPsoyRVIfoA9RNnUp-21" value="&lt;h3&gt;&lt;b&gt;&lt;i&gt;&lt;font color=&quot;#000000&quot; face=&quot;Comic Sans MS&quot;&gt;Anasayfa Oluşturma&lt;/font&gt;&lt;/i&gt;&lt;/b&gt;&lt;/h3&gt;" style="ellipse;whiteSpace=wrap;html=1;fillColor=#4668F0;strokeColor=#10739e;" vertex="1" parent="WIyWlLk6GJQsqaUBKTNV-1">
          <mxGeometry x="530" y="370" width="120" height="80" as="geometry" />
        </mxCell>
        <mxCell id="LJRJPsoyRVIfoA9RNnUp-23" value="&lt;h3&gt;&lt;b&gt;&lt;i&gt;&lt;font color=&quot;#000000&quot; face=&quot;Comic Sans MS&quot;&gt;Login Ekranı OLuşturma&lt;/font&gt;&lt;/i&gt;&lt;/b&gt;&lt;/h3&gt;" style="ellipse;whiteSpace=wrap;html=1;fillColor=#4668F0;strokeColor=#10739e;" vertex="1" parent="WIyWlLk6GJQsqaUBKTNV-1">
          <mxGeometry x="530" y="460" width="120" height="80" as="geometry" />
        </mxCell>
        <mxCell id="LJRJPsoyRVIfoA9RNnUp-24" value="" style="endArrow=classic;html=1;rounded=0;" edge="1" parent="WIyWlLk6GJQsqaUBKTNV-1">
          <mxGeometry width="50" height="50" relative="1" as="geometry">
            <mxPoint x="374.5" y="480" as="sourcePoint" />
            <mxPoint x="375" y="550" as="targetPoint" />
          </mxGeometry>
        </mxCell>
        <mxCell id="LJRJPsoyRVIfoA9RNnUp-25" value="&lt;h3&gt;&lt;font face=&quot;Comic Sans MS&quot; color=&quot;#000000&quot;&gt;&lt;i&gt;Proje Bitirme&lt;/i&gt;&lt;/font&gt;&lt;/h3&gt;" style="rounded=1;whiteSpace=wrap;html=1;fontSize=12;glass=0;strokeWidth=1;shadow=0;fillColor=#a0522d;strokeColor=#6D1F00;fontColor=#ffffff;" vertex="1" parent="WIyWlLk6GJQsqaUBKTNV-1">
          <mxGeometry x="317.5" y="550" width="120" height="40" as="geometry" />
        </mxCell>
      </root>
    </mxGraphModel>
  </diagram>
</mxfile>
